<?xml version="1.0" encoding="utf-8"?>
<!-- Generator: Adobe Illustrator 26.4.0, SVG Export Plug-In . SVG Version: 6.00 Build 0)  -->
<svg version="1.1" id="Layer_1" xmlns="http://www.w3.org/2000/svg" xmlns:xlink="http://www.w3.org/1999/xlink" x="0px" y="0px"
	 viewBox="0 0 38 38" style="enable-background:new 0 0 38 38;" xml:space="preserve">
<style type="text/css">
	.st0{fill:#FFFEF0;}
	.st1{fill:#C46128;}
</style>
<circle class="st0" cx="19" cy="19" r="19"/>
<g>
	<path class="st1" d="M16.9,21.1c1.6,1.6,3.5,3.2,4.2,2.4c1.1-1.1,1.7-2,4.1-0.1c2.3,1.9,0.6,3.1-0.5,4.2c-1.2,1.2-5.6,0.1-10-4.3
		c-4.4-4.4-5.5-8.8-4.4-10c1-1,2.3-2.8,4.2-0.5c1.9,2.3,1,3-0.1,4.1C13.7,17.7,15.3,19.5,16.9,21.1z M19.2,13.4c0,0-0.5-0.1-0.8,0.3
		c-0.4,0.4-0.4,1,0,1.3c0.2,0.2,0.5,0.3,0.5,0.3c0.6,0.1,1.5,0.3,2.5,1.3c1,1,1.2,1.9,1.3,2.5c0,0,0,0.3,0.3,0.5
		c0.4,0.4,1,0.4,1.3,0c0.3-0.3,0.3-0.8,0.3-0.8c-0.2-1.2-0.8-2.5-1.8-3.5C21.8,14.2,20.5,13.6,19.2,13.4z M23.9,14.2
		c1.8,1.8,2.5,3.8,2.3,5.4c0,0-0.1,0.5,0.3,0.9c0.4,0.4,1,0.4,1.3,0c0.2-0.2,0.3-0.6,0.3-0.6c0.2-1.4-0.1-4.3-2.8-7
		c-2.8-2.8-5.6-3-7-2.8c0,0-0.4,0-0.6,0.3c-0.4,0.4-0.4,1,0,1.3c0.3,0.3,0.9,0.3,0.9,0.3C20,11.6,22.1,12.4,23.9,14.2z"/>
</g>
</svg>
